<svg xmlns="http://www.w3.org/2000/svg" version="1.1" width="155px" height="157px" style="shape-rendering:geometricPrecision; text-rendering:geometricPrecision; image-rendering:optimizeQuality; fill-rule:evenodd; clip-rule:evenodd" xmlns:xlink="http://www.w3.org/1999/xlink" transform="rotate(0) scale(1, 1)">
<g><path style="opacity:1" fill="#9ca3af00" d="M -0.5,-0.5 C 51.1667,-0.5 102.833,-0.5 154.5,-0.5C 154.5,32.8333 154.5,66.1667 154.5,99.5C 153.662,99.1583 153.328,98.4916 153.5,97.5C 153.662,95.4727 153.495,93.4727 153,91.5C 152.617,90.944 152.117,90.6107 151.5,90.5C 151.5,88.5 150.5,87.5 148.5,87.5C 148.027,86.0937 147.027,85.427 145.5,85.5C 143.735,84.5386 141.735,84.2053 139.5,84.5C 139.829,70.9895 139.496,57.6562 138.5,44.5C 137.662,44.1583 137.328,43.4916 137.5,42.5C 137.635,40.4458 136.968,38.7791 135.5,37.5C 135.573,35.9731 134.906,34.9731 133.5,34.5C 132.246,31.9066 130.58,29.5732 128.5,27.5C 121.236,19.3065 112.236,16.6398 101.5,19.5C 101.158,20.3382 100.492,20.6716 99.5,20.5C 95.5252,20.4859 92.1918,21.8193 89.5,24.5C 84.764,27.2609 81.4306,31.2609 79.5,36.5C 79.5,36.8333 79.5,37.1667 79.5,37.5C 77.8958,38.287 77.2291,39.6203 77.5,41.5C 75.6565,43.2789 74.9898,45.6122 75.5,48.5C 75.5,69.8333 75.5,91.1667 75.5,112.5C 73.6838,115.461 72.3505,118.795 71.5,122.5C 70.8902,123.391 70.5569,124.391 70.5,125.5C 68.5,125.5 67.5,126.5 67.5,128.5C 65.2512,129.08 63.5846,130.413 62.5,132.5C 61.391,132.557 60.391,132.89 59.5,133.5C 56.5049,133.294 53.8383,133.96 51.5,135.5C 45.7915,134.817 40.1249,133.817 34.5,132.5C 33.0892,130.086 31.0892,128.419 28.5,127.5C 26.7928,125.137 25.1261,122.804 23.5,120.5C 22.6233,105.519 22.29,90.5193 22.5,75.5C 25.3878,76.0102 27.7211,75.3435 29.5,73.5C 31.8333,73.1667 33.1667,71.8333 33.5,69.5C 35.1156,65.7042 36.1156,61.7042 36.5,57.5C 37.4948,46.3456 37.8281,35.0123 37.5,23.5C 36.7659,22.2921 36.4326,20.9587 36.5,19.5C 34.139,19.3259 31.8056,18.9926 29.5,18.5C 30.1031,13.3814 29.4364,8.71474 27.5,4.5C 26.609,3.89022 25.609,3.55688 24.5,3.5C 22.3587,2.8367 20.0254,2.50337 17.5,2.5C 14.7305,2.52856 12.3972,3.19522 10.5,4.5C 9.8795,9.60215 9.21283,14.6021 8.5,19.5C 5.91104,19.461 3.91104,20.461 2.5,22.5C 1.83333,22.5 1.5,22.8333 1.5,23.5C 0.833333,23.5 0.166667,23.5 -0.5,23.5C -0.5,15.5 -0.5,7.5 -0.5,-0.5 Z"/></g>
<g><path style="opacity:1" fill="#9ca3af00" d="M 24.5,3.5 C 19.737,3.22562 15.0704,3.55896 10.5,4.5C 12.3972,3.19522 14.7305,2.52856 17.5,2.5C 20.0254,2.50337 22.3587,2.8367 24.5,3.5 Z"/></g>
<g><path style="opacity:1" fill="#9ca3af00" d="M 24.5,3.5 C 25.609,3.55688 26.609,3.89022 27.5,4.5C 28.4454,9.40533 28.7787,14.4053 28.5,19.5C 27.6753,15.3528 27.1753,11.0195 27,6.5C 25.955,5.62656 25.1217,4.62656 24.5,3.5 Z"/></g>
<g><path style="opacity:1" fill="#9ca3af00" d="M 27.5,4.5 C 29.4364,8.71474 30.1031,13.3814 29.5,18.5C 31.8056,18.9926 34.139,19.3259 36.5,19.5C 36.4326,20.9587 36.7659,22.2921 37.5,23.5C 36.8333,23.5 36.1667,23.5 35.5,23.5C 33.8791,21.058 31.5458,19.7247 28.5,19.5C 28.7787,14.4053 28.4454,9.40533 27.5,4.5 Z"/></g>
<g><path style="opacity:1" fill="#9ca3af00" d="M 101.5,19.5 C 112.236,16.6398 121.236,19.3065 128.5,27.5C 127.609,26.8902 126.609,26.5569 125.5,26.5C 122.5,23.5022 118.834,21.8356 114.5,21.5C 114.389,20.8826 114.056,20.3826 113.5,20C 109.514,19.5012 105.514,19.3345 101.5,19.5 Z"/></g>
<g><path style="opacity:1" fill="#9ca3af" d="M 101.5,19.5 C 105.514,19.3345 109.514,19.5012 113.5,20C 114.056,20.3826 114.389,20.8826 114.5,21.5C 109.5,21.5 104.5,21.5 99.5,21.5C 99.5,21.1667 99.5,20.8333 99.5,20.5C 100.492,20.6716 101.158,20.3382 101.5,19.5 Z"/></g>
<g><path style="opacity:1" fill="#9ca3af" d="M 8.5,19.5 C 8.67158,20.4916 8.33825,21.1583 7.5,21.5C 5.7839,21.6287 4.11723,21.962 2.5,22.5C 3.91104,20.461 5.91104,19.461 8.5,19.5 Z"/></g>
<g><path style="opacity:1" fill="#9ca3af" d="M 99.5,20.5 C 99.5,20.8333 99.5,21.1667 99.5,21.5C 96.2569,21.9143 93.2569,22.9143 90.5,24.5C 90.1667,24.5 89.8333,24.5 89.5,24.5C 92.1918,21.8193 95.5252,20.4859 99.5,20.5 Z"/></g>
<g><path style="opacity:1" fill="#9ca3af" d="M 7.5,21.5 C 7.5,22.1667 7.5,22.8333 7.5,23.5C 6.54163,23.9528 5.7083,24.6195 5,25.5C 4.5002,35.1609 4.33353,44.8276 4.5,54.5C 13.5,54.5 22.5,54.5 31.5,54.5C 32.1667,54.5 32.8333,54.5 33.5,54.5C 34.1599,55.964 34.4932,57.6307 34.5,59.5C 33.8162,62.8612 33.1495,66.1945 32.5,69.5C 31.5994,71.7271 29.9328,72.7271 27.5,72.5C 24.9179,72.0254 22.9179,72.6921 21.5,74.5C 21.1667,74.5 20.8333,74.5 20.5,74.5C 19.391,74.4431 18.391,74.1098 17.5,73.5C 14.1401,73.3841 10.8067,73.0508 7.5,72.5C 5.04993,70.3709 3.38326,67.7043 2.5,64.5C 3.01017,61.6122 2.34351,59.2789 0.5,57.5C 0.189371,46.0857 0.522704,34.7524 1.5,23.5C 1.5,22.8333 1.83333,22.5 2.5,22.5C 4.11723,21.962 5.7839,21.6287 7.5,21.5 Z"/></g>
<g><path style="opacity:1" fill="#9ca3af" d="M 99.5,21.5 C 104.5,21.5 109.5,21.5 114.5,21.5C 118.834,21.8356 122.5,23.5022 125.5,26.5C 125.5,27.8333 124.833,28.5 123.5,28.5C 122.609,27.8902 121.609,27.5569 120.5,27.5C 119.365,25.7868 117.698,25.1201 115.5,25.5C 113.085,24.1858 110.252,23.5191 107,23.5C 104.167,23.8333 101.333,24.1667 98.5,24.5C 96.8164,25.1497 95.4831,26.1497 94.5,27.5C 94.1667,27.5 93.8333,27.5 93.5,27.5C 91.2459,28.4151 89.2459,29.7484 87.5,31.5C 87.1961,30.8501 86.8627,30.1835 86.5,29.5C 88.2611,28.0834 89.5944,26.4167 90.5,24.5C 93.2569,22.9143 96.2569,21.9143 99.5,21.5 Z"/></g>
<g><path style="opacity:1" fill="#9ca3af" d="M 115.5,25.5 C 108.246,23.7654 101.246,24.4321 94.5,27.5C 95.4831,26.1497 96.8164,25.1497 98.5,24.5C 101.333,24.1667 104.167,23.8333 107,23.5C 110.252,23.5191 113.085,24.1858 115.5,25.5 Z"/></g>
<g><path style="opacity:1" fill="#9ca3af00" d="M 115.5,25.5 C 115.842,26.3382 116.508,26.6716 117.5,26.5C 119.404,29.2108 122.07,30.8775 125.5,31.5C 126.167,31.5 126.5,31.8333 126.5,32.5C 126.712,36.2076 128.378,38.8743 131.5,40.5C 131.5,40.8333 131.5,41.1667 131.5,41.5C 132.431,55.8042 132.764,70.1375 132.5,84.5C 130.265,84.2053 128.265,84.5386 126.5,85.5C 125.1,86.1001 124.1,87.1001 123.5,88.5C 122.094,88.9731 121.427,89.9731 121.5,91.5C 119.72,92.9899 119.054,94.9899 119.5,97.5C 118.17,103.463 117.504,109.796 117.5,116.5C 117.5,123.009 117.834,129.342 118.5,135.5C 119.167,136.167 119.833,136.833 120.5,137.5C 122.059,139.25 124.059,140.25 126.5,140.5C 126.334,145.179 126.501,149.845 127,154.5C 127.383,155.056 127.883,155.389 128.5,155.5C 128.5,155.833 128.5,156.167 128.5,156.5C 85.5,156.5 42.5,156.5 -0.5,156.5C -0.5,124.833 -0.5,93.1667 -0.5,61.5C 0.166667,62.1667 0.833333,62.8333 1.5,63.5C 1.5,63.8333 1.5,64.1667 1.5,64.5C 1.06952,67.8621 2.06952,70.6954 4.5,73C 5.44802,73.4828 6.44802,73.6495 7.5,73.5C 7.83333,73.5 8.16667,73.5 8.5,73.5C 8.61071,74.1174 8.94404,74.6174 9.5,75C 11.4727,75.4955 13.4727,75.6621 15.5,75.5C 15.1716,87.6783 15.5049,99.6783 16.5,111.5C 16.3054,115.915 16.8054,120.249 18,124.5C 20.3997,127.608 22.8997,130.608 25.5,133.5C 26.4168,134.127 27.4168,134.461 28.5,134.5C 29.1667,134.5 29.8333,134.5 30.5,134.5C 30.8212,136.048 31.8212,136.715 33.5,136.5C 35.1757,138.834 37.509,139.834 40.5,139.5C 40.6107,140.117 40.944,140.617 41.5,141C 46.1667,141.667 50.8333,141.667 55.5,141C 56.4158,140.722 57.0825,140.222 57.5,139.5C 59.9267,139.477 62.26,138.977 64.5,138C 66.9066,135.715 69.4066,133.549 72,131.5C 72.4828,130.552 72.6495,129.552 72.5,128.5C 72.8333,128.5 73.1667,128.5 73.5,128.5C 75.942,126.879 77.2753,124.546 77.5,121.5C 78.038,119.883 78.3713,118.216 78.5,116.5C 80.1628,114.562 80.8294,112.228 80.5,109.5C 81.1862,86.2944 81.8528,62.961 82.5,39.5C 83.9063,39.0269 84.573,38.0269 84.5,36.5C 88.5,34.5 91.5,31.5 93.5,27.5C 93.8333,27.5 94.1667,27.5 94.5,27.5C 101.246,24.4321 108.246,23.7654 115.5,25.5 Z"/></g>
<g><path style="opacity:1" fill="#9ca3af" d="M 115.5,25.5 C 117.698,25.1201 119.365,25.7868 120.5,27.5C 119.391,27.4431 118.391,27.1098 117.5,26.5C 116.508,26.6716 115.842,26.3382 115.5,25.5 Z"/></g>
<g><path style="opacity:1" fill="#9ca3af" d="M 24.5,3.5 C 25.1217,4.62656 25.955,5.62656 27,6.5C 27.1753,11.0195 27.6753,15.3528 28.5,19.5C 31.5458,19.7247 33.8791,21.058 35.5,23.5C 36.4773,34.7524 36.8106,46.0857 36.5,57.5C 36.1156,61.7042 35.1156,65.7042 33.5,69.5C 33.1667,69.5 32.8333,69.5 32.5,69.5C 33.1495,66.1945 33.8162,62.8612 34.5,59.5C 34.4932,57.6307 34.1599,55.964 33.5,54.5C 33.8269,44.985 33.4936,35.6517 32.5,26.5C 32.5858,25.5041 32.2524,24.6708 31.5,24C 23.5069,23.5003 15.5069,23.3336 7.5,23.5C 7.5,22.8333 7.5,22.1667 7.5,21.5C 8.33825,21.1583 8.67158,20.4916 8.5,19.5C 9.21283,14.6021 9.8795,9.60215 10.5,4.5C 15.0704,3.55896 19.737,3.22562 24.5,3.5 Z"/></g>
<g><path style="opacity:1" fill="#9ca3af" d="M 13.5,8.5 C 13.1872,12.0419 13.5206,15.3752 14.5,18.5C 17.2869,19.4767 20.2869,19.81 23.5,19.5C 20.0381,20.4816 16.3714,20.815 12.5,20.5C 12.1832,16.2984 12.5166,12.2984 13.5,8.5 Z"/></g>
<g><path style="opacity:1" fill="#9ca3af" d="M 23.5,19.5 C 20.2869,19.81 17.2869,19.4767 14.5,18.5C 13.5206,15.3752 13.1872,12.0419 13.5,8.5C 16.8987,7.18016 20.3987,7.18016 24,8.5C 24.8099,12.3575 24.6433,16.0242 23.5,19.5 Z"/></g>
<g><path style="opacity:1" fill="#9ca3af" d="M 14.5,18.5 C 14.5,15.1667 14.5,11.8333 14.5,8.5C 17.1667,8.5 19.8333,8.5 22.5,8.5C 22.5,11.8333 22.5,15.1667 22.5,18.5C 19.8333,18.5 17.1667,18.5 14.5,18.5 Z"/></g>
<g><path style="opacity:1" fill="#9ca3af" d="M 35.5,23.5 C 36.1667,23.5 36.8333,23.5 37.5,23.5C 37.8281,35.0123 37.4948,46.3456 36.5,57.5C 36.8106,46.0857 36.4773,34.7524 35.5,23.5 Z"/></g>
<g><path style="opacity:1" fill="#9ca3af00" d="M -0.5,23.5 C 0.166667,23.5 0.833333,23.5 1.5,23.5C 0.522704,34.7524 0.189371,46.0857 0.5,57.5C 1.14952,59.4352 1.48285,61.4352 1.5,63.5C 0.833333,62.8333 0.166667,62.1667 -0.5,61.5C -0.5,48.8333 -0.5,36.1667 -0.5,23.5 Z"/></g>
<g><path style="opacity:1" fill="#9ca3af" d="M 7.5,23.5 C 15.5069,23.3336 23.5069,23.5003 31.5,24C 32.2524,24.6708 32.5858,25.5041 32.5,26.5C 32.8266,35.6822 32.4933,44.6822 31.5,53.5C 31.5,53.8333 31.5,54.1667 31.5,54.5C 22.5,54.5 13.5,54.5 4.5,54.5C 4.33353,44.8276 4.5002,35.1609 5,25.5C 5.7083,24.6195 6.54163,23.9528 7.5,23.5 Z"/></g>
<g><path style="opacity:1" fill="#9ca3af00" d="M 31.5,53.5 C 22.8333,53.5 14.1667,53.5 5.5,53.5C 5.33356,44.4938 5.50023,35.4938 6,26.5C 6.5,26 7,25.5 7.5,25C 15.4128,24.1859 23.2462,24.3526 31,25.5C 31.4998,34.8274 31.6665,44.1607 31.5,53.5 Z"/></g>
<g><path style="opacity:1" fill="#9ca3af" d="M 32.5,26.5 C 33.4936,35.6517 33.8269,44.985 33.5,54.5C 32.8333,54.5 32.1667,54.5 31.5,54.5C 31.5,54.1667 31.5,53.8333 31.5,53.5C 32.4933,44.6822 32.8266,35.6822 32.5,26.5 Z"/></g>
<g><path style="opacity:1" fill="#9ca3af" d="M 117.5,26.5 C 118.391,27.1098 119.391,27.4431 120.5,27.5C 121.609,27.5569 122.609,27.8902 123.5,28.5C 124.167,29.5 124.833,30.5 125.5,31.5C 122.07,30.8775 119.404,29.2108 117.5,26.5 Z"/></g>
<g><path style="opacity:1" fill="#9ca3af" d="M 89.5,24.5 C 89.8333,24.5 90.1667,24.5 90.5,24.5C 89.5944,26.4167 88.2611,28.0834 86.5,29.5C 86.8627,30.1835 87.1961,30.8501 87.5,31.5C 87.0679,32.7095 86.4013,33.7095 85.5,34.5C 85.719,33.325 85.3857,32.325 84.5,31.5C 82.9201,33.4086 81.2535,35.0753 79.5,36.5C 81.4306,31.2609 84.764,27.2609 89.5,24.5 Z"/></g>
<g><path style="opacity:1" fill="#9ca3af" d="M 125.5,26.5 C 126.609,26.5569 127.609,26.8902 128.5,27.5C 130.58,29.5732 132.246,31.9066 133.5,34.5C 133.427,36.0269 134.094,37.0269 135.5,37.5C 136.968,38.7791 137.635,40.4458 137.5,42.5C 136.504,42.5858 135.671,42.2524 135,41.5C 134.503,43.8098 134.337,46.1432 134.5,48.5C 134.167,48.5 133.833,48.5 133.5,48.5C 133.662,46.4727 133.495,44.4727 133,42.5C 132.617,41.944 132.117,41.6107 131.5,41.5C 131.5,41.1667 131.5,40.8333 131.5,40.5C 130.831,37.1511 129.164,34.4844 126.5,32.5C 126.5,31.8333 126.167,31.5 125.5,31.5C 124.833,30.5 124.167,29.5 123.5,28.5C 124.833,28.5 125.5,27.8333 125.5,26.5 Z"/></g>
<g><path style="opacity:1" fill="#9ca3af00" d="M 93.5,27.5 C 91.5,31.5 88.5,34.5 84.5,36.5C 84.5,36.1667 84.5,35.8333 84.5,35.5C 84.5,34.8333 84.8333,34.5 85.5,34.5C 86.4013,33.7095 87.0679,32.7095 87.5,31.5C 89.2459,29.7484 91.2459,28.4151 93.5,27.5 Z"/></g>
<g><path style="opacity:1" fill="#9ca3af00" d="M 126.5,32.5 C 129.164,34.4844 130.831,37.1511 131.5,40.5C 128.378,38.8743 126.712,36.2076 126.5,32.5 Z"/></g>
<g><path style="opacity:1" fill="#9ca3af" d="M 133.5,34.5 C 134.906,34.9731 135.573,35.9731 135.5,37.5C 134.094,37.0269 133.427,36.0269 133.5,34.5 Z"/></g>
<g><path style="opacity:1" fill="#9ca3af00" d="M 84.5,35.5 C 84.5,35.8333 84.5,36.1667 84.5,36.5C 84.573,38.0269 83.9063,39.0269 82.5,39.5C 82.6596,37.847 83.3263,36.5137 84.5,35.5 Z"/></g>
<g><path style="opacity:1" fill="#9ca3af" d="M 85.5,34.5 C 84.8333,34.5 84.5,34.8333 84.5,35.5C 83.3263,36.5137 82.6596,37.847 82.5,39.5C 81.8826,39.6107 81.3826,39.944 81,40.5C 80.5045,42.4727 80.3379,44.4727 80.5,46.5C 79.2749,45.8478 78.6083,44.6811 78.5,43C 78.6962,41.1216 79.0295,39.2883 79.5,37.5C 79.5,37.1667 79.5,36.8333 79.5,36.5C 81.2535,35.0753 82.9201,33.4086 84.5,31.5C 85.3857,32.325 85.719,33.325 85.5,34.5 Z"/></g>
<g><path style="opacity:1" fill="#9ca3af" d="M 77.5,41.5 C 77.0733,44.0098 76.4067,46.3432 75.5,48.5C 74.9898,45.6122 75.6565,43.2789 77.5,41.5 Z"/></g>
<g><path style="opacity:1" fill="#9ca3af00" d="M 82.5,39.5 C 81.8528,62.961 81.1862,86.2944 80.5,109.5C 80.5,88.5 80.5,67.5 80.5,46.5C 80.3379,44.4727 80.5045,42.4727 81,40.5C 81.3826,39.944 81.8826,39.6107 82.5,39.5 Z"/></g>
<g><path style="opacity:1" fill="#9ca3af" d="M 131.5,41.5 C 132.117,41.6107 132.617,41.944 133,42.5C 133.495,44.4727 133.662,46.4727 133.5,48.5C 133.5,60.8333 133.5,73.1667 133.5,85.5C 131.167,85.5 128.833,85.5 126.5,85.5C 128.265,84.5386 130.265,84.2053 132.5,84.5C 132.764,70.1375 132.431,55.8042 131.5,41.5 Z"/></g>
<g><path style="opacity:1" fill="#9ca3af" d="M 78.5,116.5 C 76.8235,115.817 76.1568,114.483 76.5,112.5C 76.012,91.0157 76.512,69.6823 78,48.5C 78.5,71.1642 78.6666,93.8309 78.5,116.5 Z"/></g>
<g><path style="opacity:1" fill="#9ca3af" d="M 79.5,37.5 C 79.0295,39.2883 78.6962,41.1216 78.5,43C 78.6083,44.6811 79.2749,45.8478 80.5,46.5C 80.5,67.5 80.5,88.5 80.5,109.5C 80.8294,112.228 80.1628,114.562 78.5,116.5C 78.6666,93.8309 78.5,71.1642 78,48.5C 76.512,69.6823 76.012,91.0157 76.5,112.5C 76.1667,112.5 75.8333,112.5 75.5,112.5C 75.5,91.1667 75.5,69.8333 75.5,48.5C 76.4067,46.3432 77.0733,44.0098 77.5,41.5C 77.2291,39.6203 77.8958,38.287 79.5,37.5 Z"/></g>
<g><path style="opacity:1" fill="#9ca3af" d="M 133.5,48.5 C 133.833,48.5 134.167,48.5 134.5,48.5C 135.66,60.3262 135.826,72.3262 135,84.5C 134.617,85.056 134.117,85.3893 133.5,85.5C 133.5,73.1667 133.5,60.8333 133.5,48.5 Z"/></g>
<g><path style="opacity:1" fill="#9ca3af" d="M 138.5,44.5 C 139.496,57.6562 139.829,70.9895 139.5,84.5C 141.735,84.2053 143.735,84.5386 145.5,85.5C 143.167,85.5 140.833,85.5 138.5,85.5C 138.5,71.8333 138.5,58.1667 138.5,44.5 Z"/></g>
<g><path style="opacity:1" fill="#9ca3af" d="M 0.5,57.5 C 2.34351,59.2789 3.01017,61.6122 2.5,64.5C 2.16667,64.5 1.83333,64.5 1.5,64.5C 1.5,64.1667 1.5,63.8333 1.5,63.5C 1.48285,61.4352 1.14952,59.4352 0.5,57.5 Z"/></g>
<g><path style="opacity:1" fill="#9ca3af" d="M 1.5,64.5 C 1.83333,64.5 2.16667,64.5 2.5,64.5C 3.38326,67.7043 5.04993,70.3709 7.5,72.5C 7.5,72.8333 7.5,73.1667 7.5,73.5C 6.44802,73.6495 5.44802,73.4828 4.5,73C 2.06952,70.6954 1.06952,67.8621 1.5,64.5 Z"/></g>
<g><path style="opacity:1" fill="#9ca3af" d="M 27.5,72.5 C 27.5,72.8333 27.5,73.1667 27.5,73.5C 25.7354,74.4614 23.7354,74.7947 21.5,74.5C 22.9179,72.6921 24.9179,72.0254 27.5,72.5 Z"/></g>
<g><path style="opacity:1" fill="#9ca3af" d="M 32.5,69.5 C 32.8333,69.5 33.1667,69.5 33.5,69.5C 33.1667,71.8333 31.8333,73.1667 29.5,73.5C 28.8333,73.5 28.1667,73.5 27.5,73.5C 27.5,73.1667 27.5,72.8333 27.5,72.5C 29.9328,72.7271 31.5994,71.7271 32.5,69.5 Z"/></g>
<g><path style="opacity:1" fill="#9ca3af" d="M 8.5,73.5 C 11.0961,74.2653 13.7628,74.5987 16.5,74.5C 16.5,86.8333 16.5,99.1667 16.5,111.5C 15.5049,99.6783 15.1716,87.6783 15.5,75.5C 13.4727,75.6621 11.4727,75.4955 9.5,75C 8.94404,74.6174 8.61071,74.1174 8.5,73.5 Z"/></g>
<g><path style="opacity:1" fill="#9ca3af" d="M 7.5,73.5 C 7.5,73.1667 7.5,72.8333 7.5,72.5C 10.8067,73.0508 14.1401,73.3841 17.5,73.5C 17.5,86.1667 17.5,98.8333 17.5,111.5C 17.1667,111.5 16.8333,111.5 16.5,111.5C 16.5,99.1667 16.5,86.8333 16.5,74.5C 13.7628,74.5987 11.0961,74.2653 8.5,73.5C 8.16667,73.5 7.83333,73.5 7.5,73.5 Z"/></g>
<g><path style="opacity:1" fill="#9ca3af" d="M 27.5,73.5 C 28.1667,73.5 28.8333,73.5 29.5,73.5C 27.7211,75.3435 25.3878,76.0102 22.5,75.5C 22.29,90.5193 22.6233,105.519 23.5,120.5C 22.8386,119.282 22.1719,117.949 21.5,116.5C 20.5008,102.516 20.1674,88.5159 20.5,74.5C 20.8333,74.5 21.1667,74.5 21.5,74.5C 23.7354,74.7947 25.7354,74.4614 27.5,73.5 Z"/></g>
<g><path style="opacity:1" fill="#9ca3af" d="M 137.5,42.5 C 137.328,43.4916 137.662,44.1583 138.5,44.5C 138.5,58.1667 138.5,71.8333 138.5,85.5C 140.905,86.7682 143.572,87.4349 146.5,87.5C 147.167,87.5 147.833,87.5 148.5,87.5C 149.167,88.8333 150.167,89.8333 151.5,90.5C 151.993,92.8056 152.326,95.139 152.5,97.5C 152.259,99.8984 152.926,101.898 154.5,103.5C 154.5,114.167 154.5,124.833 154.5,135.5C 152.809,136.864 151.142,138.197 149.5,139.5C 148.167,139.5 146.833,139.5 145.5,139.5C 145.666,144.179 145.499,148.845 145,153.5C 143.855,154.636 142.688,155.636 141.5,156.5C 138.5,156.5 135.5,156.5 132.5,156.5C 132.119,155.069 131.119,154.236 129.5,154C 133.356,153.823 137.023,153.323 140.5,152.5C 140.5,151.833 140.833,151.5 141.5,151.5C 142.483,147.702 142.817,143.702 142.5,139.5C 138.629,139.185 134.962,139.518 131.5,140.5C 130.167,144.5 128.833,148.5 127.5,152.5C 127.817,148.298 127.483,144.298 126.5,140.5C 124.059,140.25 122.059,139.25 120.5,137.5C 118.943,122.103 119.276,106.77 121.5,91.5C 121.427,89.9731 122.094,88.9731 123.5,88.5C 126.866,87.2842 130.199,86.2842 133.5,85.5C 134.117,85.3893 134.617,85.056 135,84.5C 135.826,72.3262 135.66,60.3262 134.5,48.5C 134.337,46.1432 134.503,43.8098 135,41.5C 135.671,42.2524 136.504,42.5858 137.5,42.5 Z"/></g>
<g><path style="opacity:1" fill="#9ca3af" d="M 126.5,85.5 C 128.833,85.5 131.167,85.5 133.5,85.5C 130.199,86.2842 126.866,87.2842 123.5,88.5C 124.1,87.1001 125.1,86.1001 126.5,85.5 Z"/></g>
<g><path style="opacity:1" fill="#9ca3af" d="M 138.5,85.5 C 140.833,85.5 143.167,85.5 145.5,85.5C 145.833,86.1667 146.167,86.8333 146.5,87.5C 143.572,87.4349 140.905,86.7682 138.5,85.5 Z"/></g>
<g><path style="opacity:1" fill="#9ca3af" d="M 145.5,85.5 C 147.027,85.427 148.027,86.0937 148.5,87.5C 147.833,87.5 147.167,87.5 146.5,87.5C 146.167,86.8333 145.833,86.1667 145.5,85.5 Z"/></g>
<g><path style="opacity:1" fill="#9ca3af" d="M 148.5,87.5 C 150.5,87.5 151.5,88.5 151.5,90.5C 150.167,89.8333 149.167,88.8333 148.5,87.5 Z"/></g>
<g><path style="opacity:1" fill="#9ca3af" d="M 151.5,90.5 C 152.117,90.6107 152.617,90.944 153,91.5C 153.495,93.4727 153.662,95.4727 153.5,97.5C 153.167,97.5 152.833,97.5 152.5,97.5C 152.326,95.139 151.993,92.8056 151.5,90.5 Z"/></g>
<g><path style="opacity:1" fill="#9ca3af" d="M 152.5,97.5 C 152.833,97.5 153.167,97.5 153.5,97.5C 153.328,98.4916 153.662,99.1583 154.5,99.5C 154.5,100.833 154.5,102.167 154.5,103.5C 152.926,101.898 152.259,99.8984 152.5,97.5 Z"/></g>
<g><path style="opacity:1" fill="#9ca3af" d="M 119.5,97.5 C 118.558,110.13 118.225,122.796 118.5,135.5C 117.834,129.342 117.5,123.009 117.5,116.5C 117.504,109.796 118.17,103.463 119.5,97.5 Z"/></g>
<g><path style="opacity:1" fill="#9ca3af" d="M 121.5,91.5 C 119.276,106.77 118.943,122.103 120.5,137.5C 119.833,136.833 119.167,136.167 118.5,135.5C 118.225,122.796 118.558,110.13 119.5,97.5C 119.054,94.9899 119.72,92.9899 121.5,91.5 Z"/></g>
<g><path style="opacity:1" fill="#9ca3af" d="M 149.5,105.5 C 150.826,109.614 151.493,114.114 151.5,119C 151.493,123.886 150.826,128.386 149.5,132.5C 149.5,123.833 149.5,115.167 149.5,106.5C 149.5,106.167 149.5,105.833 149.5,105.5 Z"/></g>
<g><path style="opacity:1" fill="#9ca3af" d="M 149.5,105.5 C 149.5,105.833 149.5,106.167 149.5,106.5C 140.833,106.5 132.167,106.5 123.5,106.5C 123.5,115.5 123.5,124.5 123.5,133.5C 123.167,133.5 122.833,133.5 122.5,133.5C 121.363,124.578 121.196,115.578 122,106.5C 131.083,105.515 140.249,105.182 149.5,105.5 Z"/></g>
<g><path style="opacity:1" fill="#9ca3af00" d="M 149.5,106.5 C 149.5,115.167 149.5,123.833 149.5,132.5C 149.5,133.167 149.5,133.833 149.5,134.5C 141.215,135.606 132.882,135.773 124.5,135C 123.944,134.617 123.611,134.117 123.5,133.5C 123.5,124.5 123.5,115.5 123.5,106.5C 132.167,106.5 140.833,106.5 149.5,106.5 Z"/></g>
<g><path style="opacity:1" fill="#9ca3af" d="M 16.5,111.5 C 16.8333,111.5 17.1667,111.5 17.5,111.5C 17.155,115.115 17.8217,118.448 19.5,121.5C 19.427,123.027 20.0937,124.027 21.5,124.5C 21.3505,125.552 21.5172,126.552 22,127.5C 25.0738,129.071 27.2405,131.404 28.5,134.5C 27.4168,134.461 26.4168,134.127 25.5,133.5C 22.8997,130.608 20.3997,127.608 18,124.5C 16.8054,120.249 16.3054,115.915 16.5,111.5 Z"/></g>
<g><path style="opacity:1" fill="#9ca3af" d="M 19.5,121.5 C 20.9063,121.973 21.573,122.973 21.5,124.5C 20.0937,124.027 19.427,123.027 19.5,121.5 Z"/></g>
<g><path style="opacity:1" fill="#9ca3af" d="M 77.5,121.5 C 77.2753,124.546 75.942,126.879 73.5,128.5C 74.4676,125.9 75.8009,123.566 77.5,121.5 Z"/></g>
<g><path style="opacity:1" fill="#9ca3af" d="M 17.5,73.5 C 18.391,74.1098 19.391,74.4431 20.5,74.5C 20.1674,88.5159 20.5008,102.516 21.5,116.5C 22.1719,117.949 22.8386,119.282 23.5,120.5C 25.1261,122.804 26.7928,125.137 28.5,127.5C 29.9108,129.914 31.9108,131.581 34.5,132.5C 36.1161,133.989 38.1161,134.989 40.5,135.5C 45.3181,136.812 49.9848,136.812 54.5,135.5C 56.3057,134.976 57.9724,134.309 59.5,133.5C 60.391,132.89 61.391,132.557 62.5,132.5C 64.7946,131.864 66.4613,130.531 67.5,128.5C 68.8333,127.833 69.8333,126.833 70.5,125.5C 70.5569,124.391 70.8902,123.391 71.5,122.5C 73.8434,119.662 75.1767,116.329 75.5,112.5C 75.8333,112.5 76.1667,112.5 76.5,112.5C 76.1568,114.483 76.8235,115.817 78.5,116.5C 78.3713,118.216 78.038,119.883 77.5,121.5C 75.8009,123.566 74.4676,125.9 73.5,128.5C 73.1667,128.5 72.8333,128.5 72.5,128.5C 70.3896,130.772 68.0563,132.939 65.5,135C 62.5883,136.232 59.9216,137.732 57.5,139.5C 51.8333,139.5 46.1667,139.5 40.5,139.5C 38.4907,137.935 36.1573,136.935 33.5,136.5C 32.7095,135.599 31.7095,134.932 30.5,134.5C 29.8333,134.5 29.1667,134.5 28.5,134.5C 27.2405,131.404 25.0738,129.071 22,127.5C 21.5172,126.552 21.3505,125.552 21.5,124.5C 21.573,122.973 20.9063,121.973 19.5,121.5C 17.8217,118.448 17.155,115.115 17.5,111.5C 17.5,98.8333 17.5,86.1667 17.5,73.5 Z"/></g>
<g><path style="opacity:1" fill="#9ca3af" d="M 28.5,127.5 C 31.0892,128.419 33.0892,130.086 34.5,132.5C 31.9108,131.581 29.9108,129.914 28.5,127.5 Z"/></g>
<g><path style="opacity:1" fill="#9ca3af" d="M 70.5,125.5 C 69.8333,126.833 68.8333,127.833 67.5,128.5C 67.5,126.5 68.5,125.5 70.5,125.5 Z"/></g>
<g><path style="opacity:1" fill="#9ca3af" d="M 75.5,112.5 C 75.1767,116.329 73.8434,119.662 71.5,122.5C 72.3505,118.795 73.6838,115.461 75.5,112.5 Z"/></g>
<g><path style="opacity:1" fill="#9ca3af" d="M 67.5,128.5 C 66.4613,130.531 64.7946,131.864 62.5,132.5C 63.5846,130.413 65.2512,129.08 67.5,128.5 Z"/></g>
<g><path style="opacity:1" fill="#9ca3af" d="M 34.5,132.5 C 40.1249,133.817 45.7915,134.817 51.5,135.5C 52.5,135.5 53.5,135.5 54.5,135.5C 49.9848,136.812 45.3181,136.812 40.5,135.5C 38.1161,134.989 36.1161,133.989 34.5,132.5 Z"/></g>
<g><path style="opacity:1" fill="#9ca3af" d="M 59.5,133.5 C 57.9724,134.309 56.3057,134.976 54.5,135.5C 53.5,135.5 52.5,135.5 51.5,135.5C 53.8383,133.96 56.5049,133.294 59.5,133.5 Z"/></g>
<g><path style="opacity:1" fill="#9ca3af" d="M 72.5,128.5 C 72.6495,129.552 72.4828,130.552 72,131.5C 69.4066,133.549 66.9066,135.715 64.5,138C 62.26,138.977 59.9267,139.477 57.5,139.5C 59.9216,137.732 62.5883,136.232 65.5,135C 68.0563,132.939 70.3896,130.772 72.5,128.5 Z"/></g>
<g><path style="opacity:1" fill="#9ca3af" d="M 30.5,134.5 C 31.7095,134.932 32.7095,135.599 33.5,136.5C 31.8212,136.715 30.8212,136.048 30.5,134.5 Z"/></g>
<g><path style="opacity:1" fill="#9ca3af" d="M 122.5,133.5 C 122.833,133.5 123.167,133.5 123.5,133.5C 123.611,134.117 123.944,134.617 124.5,135C 132.882,135.773 141.215,135.606 149.5,134.5C 145.555,135.825 141.222,136.492 136.5,136.5C 132.167,136.333 127.833,136.167 123.5,136C 122.748,135.329 122.414,134.496 122.5,133.5 Z"/></g>
<g><path style="opacity:1" fill="#9ca3af" d="M 33.5,136.5 C 36.1573,136.935 38.4907,137.935 40.5,139.5C 37.509,139.834 35.1757,138.834 33.5,136.5 Z"/></g>
<g><path style="opacity:1" fill="#9ca3af" d="M 154.5,135.5 C 154.5,136.167 154.5,136.833 154.5,137.5C 153.18,138.942 151.514,139.608 149.5,139.5C 151.142,138.197 152.809,136.864 154.5,135.5 Z"/></g>
<g><path style="opacity:1" fill="#9ca3af00" d="M 154.5,137.5 C 154.5,143.833 154.5,150.167 154.5,156.5C 151.167,156.5 147.833,156.5 144.5,156.5C 144.783,155.711 145.283,155.044 146,154.5C 146.499,149.845 146.666,145.179 146.5,140.5C 147.791,140.737 148.791,140.404 149.5,139.5C 151.514,139.608 153.18,138.942 154.5,137.5 Z"/></g>
<g><path style="opacity:1" fill="#9ca3af" d="M 40.5,139.5 C 46.1667,139.5 51.8333,139.5 57.5,139.5C 57.0825,140.222 56.4158,140.722 55.5,141C 50.8333,141.667 46.1667,141.667 41.5,141C 40.944,140.617 40.6107,140.117 40.5,139.5 Z"/></g>
<g><path style="opacity:1" fill="#9ca3af" d="M 126.5,140.5 C 127.483,144.298 127.817,148.298 127.5,152.5C 128.11,153.391 128.443,154.391 128.5,155.5C 127.883,155.389 127.383,155.056 127,154.5C 126.501,149.845 126.334,145.179 126.5,140.5 Z"/></g>
<g><path style="opacity:1" fill="#9ca3af" d="M 131.5,140.5 C 134.962,139.518 138.629,139.185 142.5,139.5C 142.817,143.702 142.483,147.702 141.5,151.5C 141.813,147.958 141.479,144.625 140.5,141.5C 137.713,140.523 134.713,140.19 131.5,140.5 Z"/></g>
<g><path style="opacity:1" fill="#9ca3af" d="M 149.5,139.5 C 148.791,140.404 147.791,140.737 146.5,140.5C 146.666,145.179 146.499,149.845 146,154.5C 145.283,155.044 144.783,155.711 144.5,156.5C 143.5,156.5 142.5,156.5 141.5,156.5C 142.688,155.636 143.855,154.636 145,153.5C 145.499,148.845 145.666,144.179 145.5,139.5C 146.833,139.5 148.167,139.5 149.5,139.5 Z"/></g>
<g><path style="opacity:1" fill="#9ca3af" d="M 131.5,140.5 C 134.713,140.19 137.713,140.523 140.5,141.5C 141.479,144.625 141.813,147.958 141.5,151.5C 140.833,151.5 140.5,151.833 140.5,152.5C 137.223,152.784 134.057,152.451 131,151.5C 130.245,147.745 130.411,144.078 131.5,140.5 Z"/></g>
<g><path style="opacity:1" fill="#9ca3af00" d="M 140.5,141.5 C 140.5,144.5 140.5,147.5 140.5,150.5C 137.833,150.5 135.167,150.5 132.5,150.5C 132.5,147.5 132.5,144.5 132.5,141.5C 135.167,141.5 137.833,141.5 140.5,141.5 Z"/></g>
<g><path style="opacity:1" fill="#9ca3af" d="M 131.5,140.5 C 130.411,144.078 130.245,147.745 131,151.5C 134.057,152.451 137.223,152.784 140.5,152.5C 137.023,153.323 133.356,153.823 129.5,154C 131.119,154.236 132.119,155.069 132.5,156.5C 131.167,156.5 129.833,156.5 128.5,156.5C 128.5,156.167 128.5,155.833 128.5,155.5C 128.443,154.391 128.11,153.391 127.5,152.5C 128.833,148.5 130.167,144.5 131.5,140.5 Z"/></g>
</svg>